# xmcd
#
# Track frame offsets:
#	150
#	11582
#	28674
#	45122
#	56499
#	59981
#	63281
#	91289
#	102731
#	113108
#	122094
#	132433
#	143420
#	159142
#	162476
#	164920
#	167607
#	193436
#
# Disc length: 4295 seconds
#
# Revision: 1
# Processed by: cddbd v1.5PL3 Copyright (c) Steve Scherf et al.
# Submitted via: audiograbber 1.82.02
#
DISCID=fe10c512
DTITLE=Frische Mische - Lieder machen Leute
DYEAR=1900
DGENRE=
TTITLE0=Penisneid
TTITLE1=Psychoanalytiker
TTITLE2=Das Mannifest
TTITLE3=Minderwertigkeitskomplexe
TTITLE4=Ich war mal Fischer
TTITLE5=Ich war mal Kellner
TTITLE6=Das schmiedeeiserne Schlachtgebet
TTITLE7=Wir mögen vermögen
TTITLE8=Jackpot
TTITLE9=Interesse ist gut
TTITLE10=Ann-Katrin
TTITLE11=Biene Bertha
TTITLE12=Sensivität
TTITLE13=Ich war mal Betreten
TTITLE14=Howie, du alte Sau
TTITLE15=Jodie, du alte Sau
TTITLE16=Die Pflanze des Jahres
TTITLE17=Daten-CD
EXTD=
EXTT0=
EXTT1=
EXTT2=
EXTT3=
EXTT4=
EXTT5=
EXTT6=
EXTT7=
EXTT8=
EXTT9=
EXTT10=
EXTT11=
EXTT12=
EXTT13=
EXTT14=
EXTT15=
EXTT16=
EXTT17=
PLAYORDER=
